<svg width="24" height="24" viewBox="0 0 24 24" fill="none" xmlns="http://www.w3.org/2000/svg">
<path d="M2 3H22V15H2V3Z" stroke="#4F4F4F" stroke-linejoin="round"/>
<path d="M22 15V18H2V15" stroke="#4F4F4F" stroke-linecap="round" stroke-linejoin="round"/>
<path d="M5.5 11V10H6.5V11H5.5Z" fill="#4F4F4F" stroke="#4F4F4F"/>
<path d="M5.5 7.5V6.5H6.5V7.5H5.5Z" fill="#4F4F4F" stroke="#4F4F4F"/>
<path d="M9.5 11V10H10.5V11H9.5Z" fill="#4F4F4F" stroke="#4F4F4F"/>
<path d="M9.5 7.5V6.5H10.5V7.5H9.5Z" fill="#4F4F4F" stroke="#4F4F4F"/>
<path d="M13.5 11V10H14.5V11H13.5Z" fill="#4F4F4F" stroke="#4F4F4F"/>
<path d="M13.5 7.5V6.5H14.5V7.5H13.5Z" fill="#4F4F4F" stroke="#4F4F4F"/>
<path d="M17.5 7.5V6.5H18.5V7.5H17.5Z" fill="#4F4F4F" stroke="#4F4F4F"/>
<path d="M10.4231 18L8 21H16L13.5769 18" stroke="#4F4F4F" stroke-linecap="round" stroke-linejoin="round"/>
</svg>
