<svg width="120" height="48" viewBox="0 0 120 48" fill="none" xmlns="http://www.w3.org/2000/svg">
<path d="M1.49824 24.6419C1.92183 24.6419 2.24867 24.7857 2.484 25.0759C2.71671 25.3635 2.83437 25.7741 2.83437 26.3022C2.83437 26.8304 2.71671 27.2409 2.48138 27.5338C2.24606 27.8266 1.91921 27.973 1.49824 27.973C1.28906 27.973 1.09819 27.9338 0.923001 27.858C0.750429 27.7796 0.604 27.6619 0.486337 27.5024H0.452344L0.350374 27.9155H0V23.345H0.486337V24.4562C0.486337 24.7046 0.478494 24.9269 0.462805 25.1256H0.486337C0.716434 24.804 1.05112 24.6419 1.49824 24.6419ZM1.42764 25.0498C1.09557 25.0498 0.855016 25.1465 0.708591 25.3374C0.562166 25.5283 0.488954 25.8499 0.488954 26.3022C0.488954 26.7546 0.564778 27.0788 0.713818 27.2723C0.865472 27.4684 1.10603 27.5651 1.4381 27.5651C1.7388 27.5651 1.96105 27.4553 2.10748 27.2383C2.2539 27.0187 2.32711 26.7075 2.32711 26.297C2.32711 25.8787 2.2539 25.5649 2.10748 25.3609C1.96367 25.1544 1.73618 25.0498 1.42764 25.0498Z" fill="#E94E1B"/>
<path d="M3.17432 24.6938H3.69726L4.40325 26.5294C4.55751 26.9477 4.65425 27.2511 4.69086 27.4367H4.7144C4.74055 27.3373 4.79284 27.1648 4.87389 26.9242C4.95495 26.6837 5.22165 25.9385 5.67139 24.6938H6.19433L4.81114 28.3597C4.67518 28.7232 4.51306 28.9794 4.33003 29.1311C4.147 29.2827 3.92213 29.3585 3.65543 29.3585C3.50639 29.3585 3.35996 29.3428 3.21615 29.3089V28.9193C3.32336 28.9428 3.44364 28.9559 3.57699 28.9559C3.91167 28.9559 4.14961 28.7676 4.29342 28.3911L4.47384 27.9335L3.17432 24.6938Z" fill="#E94E1B"/>
<path d="M7.96433 22.4216H7.729V30.2789H7.96433V22.4216Z" fill="#E94E1B"/>
<path d="M16.3052 45.6216V41.1426H16.6189V45.6216H16.3052Z" fill="#EEEEEE"/>
<path d="M18.8963 45.6216H18.5799V41.4354H17.1235V41.1426H20.3501V41.4354H18.8937V45.6216H18.8963Z" fill="#EEEEEE"/>
<path d="M23.6631 42.2256C24.1285 42.2256 24.4789 42.372 24.7168 42.6649C24.9521 42.9577 25.0698 43.3865 25.0698 43.9513C25.0698 44.5056 24.9469 44.9318 24.6985 45.2325C24.4501 45.5332 24.1023 45.6823 23.6526 45.6823C23.4147 45.6823 23.2029 45.6326 23.012 45.5358C22.8211 45.4365 22.6721 45.2979 22.5623 45.1201H22.5335L22.4472 45.6221H22.2563V40.8555H22.5597V42.053C22.5597 42.2334 22.5544 42.3982 22.5466 42.5498L22.5361 42.8113H22.557C22.6825 42.61 22.8368 42.4635 23.0146 42.3694C23.1977 42.2727 23.4121 42.2256 23.6631 42.2256ZM23.6578 42.5027C23.2656 42.5027 22.9859 42.6152 22.8159 42.8401C22.6459 43.0649 22.5623 43.4362 22.5623 43.9513V44.0036C22.5623 44.5056 22.6512 44.8665 22.8264 45.0861C23.0042 45.3057 23.2787 45.413 23.6526 45.413C24.0161 45.413 24.2906 45.2848 24.4736 45.0312C24.6567 44.7776 24.7482 44.4141 24.7482 43.9461C24.7482 42.9839 24.3847 42.5027 23.6578 42.5027Z" fill="#EEEEEE"/>
<path d="M26.0974 42.2905V44.4476C26.0974 44.7823 26.168 45.0255 26.3092 45.1771C26.4504 45.3288 26.67 45.4046 26.9655 45.4046C27.3629 45.4046 27.6532 45.3053 27.8414 45.1039C28.0271 44.9026 28.1212 44.5784 28.1212 44.126V42.2878H28.4219V45.619H28.1656L28.1107 45.1588H28.0924C27.8754 45.5066 27.4911 45.6792 26.9367 45.6792C26.1785 45.6792 25.7993 45.2739 25.7993 44.4633V42.2878H26.0974V42.2905Z" fill="#EEEEEE"/>
<path d="M31.4443 44.7543C31.4443 45.0524 31.3319 45.2825 31.1044 45.442C30.8769 45.6015 30.5553 45.6825 30.1395 45.6825C29.695 45.6825 29.342 45.6145 29.0806 45.4759V45.1491C29.4153 45.3164 29.7682 45.4001 30.1395 45.4001C30.469 45.4001 30.7174 45.3452 30.89 45.2354C31.0599 45.1256 31.1462 44.9818 31.1462 44.7987C31.1462 44.6314 31.0782 44.4902 30.9423 44.3751C30.8063 44.2601 30.584 44.1477 30.2729 44.0378C29.9408 43.9176 29.7055 43.813 29.5721 43.7267C29.4362 43.6404 29.3368 43.541 29.2662 43.4338C29.1982 43.324 29.1642 43.1907 29.1642 43.0338C29.1642 42.7854 29.2688 42.5867 29.478 42.4429C29.6872 42.299 29.98 42.2258 30.3566 42.2258C30.7174 42.2258 31.0573 42.2938 31.3789 42.4272L31.2665 42.7017C30.9396 42.5657 30.6363 42.5004 30.3566 42.5004C30.0846 42.5004 29.8702 42.5448 29.7107 42.6363C29.5512 42.7252 29.4728 42.8508 29.4728 43.0103C29.4728 43.1828 29.5355 43.324 29.6584 43.426C29.7813 43.5306 30.0245 43.6456 30.3827 43.7764C30.6834 43.8836 30.9004 43.9829 31.039 44.0692C31.175 44.1555 31.2796 44.2549 31.3475 44.3647C31.4103 44.4745 31.4443 44.6052 31.4443 44.7543Z" fill="#EEEEEE"/>
<path d="M32.1035 41.3656C32.1035 41.1695 32.1689 41.0728 32.297 41.0728C32.3598 41.0728 32.4094 41.0989 32.446 41.1486C32.4827 41.2009 32.501 41.2715 32.501 41.3656C32.501 41.4571 32.4827 41.5303 32.446 41.5826C32.4094 41.6349 32.3598 41.6611 32.297 41.6611C32.1663 41.6611 32.1035 41.5643 32.1035 41.3656ZM32.4487 45.6224H32.1453V42.2912H32.4487V45.6224Z" fill="#EEEEEE"/>
<path d="M35.7303 45.6224V43.4626C35.7303 43.1279 35.6597 42.8847 35.5185 42.7305C35.3773 42.5788 35.1576 42.503 34.8622 42.503C34.4647 42.503 34.1719 42.6023 33.9862 42.8037C33.8006 43.005 33.7091 43.3319 33.7091 43.7816V45.6198H33.4058V42.2886H33.662L33.7195 42.7462H33.7378C33.9549 42.3984 34.3392 42.2258 34.8935 42.2258C35.6492 42.2258 36.0283 42.6311 36.0283 43.4417V45.6198H35.7303V45.6224Z" fill="#EEEEEE"/>
<path d="M38.2977 45.6821C37.814 45.6821 37.4375 45.5331 37.1655 45.235C36.8936 44.9369 36.7603 44.5185 36.7603 43.9825C36.7603 43.4517 36.891 43.0255 37.1525 42.7065C37.4139 42.3875 37.7669 42.228 38.2088 42.228C38.601 42.228 38.9096 42.364 39.137 42.6385C39.3645 42.9131 39.477 43.2844 39.477 43.755V44.0008H37.0766C37.0819 44.4584 37.1865 44.8088 37.3956 45.0493C37.6048 45.2899 37.9055 45.4102 38.2951 45.4102C38.486 45.4102 38.6533 45.3971 38.7971 45.3709C38.9409 45.3448 39.124 45.2873 39.3436 45.1984V45.4729C39.1553 45.554 38.9828 45.6115 38.8233 45.6403C38.6638 45.6664 38.4886 45.6821 38.2977 45.6821ZM38.2088 42.4947C37.8872 42.4947 37.631 42.5993 37.4375 42.8111C37.244 43.0229 37.1289 43.3262 37.0975 43.7263H39.158C39.158 43.3393 39.0743 43.0386 38.9069 42.8216C38.737 42.6045 38.5043 42.4947 38.2088 42.4947Z" fill="#EEEEEE"/>
<path d="M42.3037 44.7543C42.3037 45.0524 42.1912 45.2825 41.9637 45.442C41.7363 45.6015 41.4146 45.6825 40.9989 45.6825C40.5544 45.6825 40.2014 45.6145 39.9399 45.4759V45.1491C40.2746 45.3164 40.6276 45.4001 40.9989 45.4001C41.3284 45.4001 41.5768 45.3452 41.7493 45.2354C41.9193 45.1256 42.0056 44.9818 42.0056 44.7987C42.0056 44.6314 41.9376 44.4902 41.8016 44.3751C41.6657 44.2601 41.4434 44.1477 41.1323 44.0378C40.8002 43.9176 40.5649 43.813 40.4315 43.7267C40.2955 43.6404 40.1962 43.541 40.1256 43.4338C40.0576 43.324 40.0236 43.1907 40.0236 43.0338C40.0236 42.7854 40.1282 42.5867 40.3374 42.4429C40.5465 42.299 40.8394 42.2258 41.2159 42.2258C41.5768 42.2258 41.9167 42.2938 42.2383 42.4272L42.1259 42.7017C41.799 42.5657 41.4957 42.5004 41.2159 42.5004C40.944 42.5004 40.7296 42.5448 40.5701 42.6363C40.4106 42.7252 40.3322 42.8508 40.3322 43.0103C40.3322 43.1828 40.3949 43.324 40.5178 43.426C40.6407 43.5306 40.8839 43.6456 41.2421 43.7764C41.5428 43.8836 41.7598 43.9829 41.8984 44.0692C42.0343 44.1555 42.1389 44.2549 42.2069 44.3647C42.2697 44.4745 42.3037 44.6052 42.3037 44.7543Z" fill="#EEEEEE"/>
<path d="M45.0698 44.7543C45.0698 45.0524 44.9574 45.2825 44.7299 45.442C44.5024 45.6015 44.1808 45.6825 43.765 45.6825C43.3205 45.6825 42.9675 45.6145 42.7061 45.4759V45.1491C43.0407 45.3164 43.3937 45.4001 43.765 45.4001C44.0945 45.4001 44.3429 45.3452 44.5155 45.2354C44.6854 45.1256 44.7717 44.9818 44.7717 44.7987C44.7717 44.6314 44.7037 44.4902 44.5678 44.3751C44.4318 44.2601 44.2095 44.1477 43.8984 44.0378C43.5663 43.9176 43.331 43.813 43.1976 43.7267C43.0617 43.6404 42.9623 43.541 42.8917 43.4338C42.8237 43.324 42.7897 43.1907 42.7897 43.0338C42.7897 42.7854 42.8943 42.5867 43.1035 42.4429C43.3127 42.299 43.6055 42.2258 43.982 42.2258C44.3429 42.2258 44.6828 42.2938 45.0044 42.4272L44.892 42.7017C44.5651 42.5657 44.2618 42.5004 43.982 42.5004C43.7101 42.5004 43.4957 42.5448 43.3362 42.6363C43.1767 42.7252 43.0983 42.8508 43.0983 43.0103C43.0983 43.1828 43.161 43.324 43.2839 43.426C43.4068 43.5306 43.65 43.6456 44.0082 43.7764C44.3089 43.8836 44.5259 43.9829 44.6645 44.0692C44.8005 44.1555 44.9051 44.2549 44.973 44.3647C45.0358 44.4745 45.0698 44.6052 45.0698 44.7543Z" fill="#EEEEEE"/>
<path d="M49.2667 45.6221L49.1909 45.0939H49.1673C49 45.3083 48.8274 45.46 48.6522 45.5489C48.4744 45.6378 48.2679 45.6822 48.0247 45.6822C47.6979 45.6822 47.4442 45.5986 47.2612 45.4312C47.0782 45.2639 46.9893 45.0312 46.9893 44.7357C46.9893 44.4115 47.1252 44.1578 47.3946 43.98C47.6665 43.7996 48.0561 43.7055 48.5686 43.695L49.2039 43.6767V43.4571C49.2039 43.1407 49.1386 42.9028 49.0105 42.7407C48.8823 42.5785 48.6732 42.4975 48.3882 42.4975C48.0796 42.4975 47.7606 42.5838 47.4285 42.7537L47.3161 42.4896C47.6822 42.3171 48.043 42.2334 48.4012 42.2334C48.7673 42.2334 49.0392 42.3275 49.2196 42.5184C49.4001 42.7093 49.4916 43.0048 49.4916 43.4074V45.6221H49.2667ZM48.043 45.4077C48.3986 45.4077 48.6784 45.3057 48.8849 45.1018C49.0915 44.8978 49.1935 44.6154 49.1935 44.2546V43.9277L48.6104 43.9513C48.1424 43.9748 47.8103 44.048 47.6089 44.1709C47.4102 44.2938 47.3109 44.4873 47.3109 44.7488C47.3109 44.958 47.3736 45.1201 47.5018 45.2351C47.6299 45.3476 47.8103 45.4077 48.043 45.4077Z" fill="#EEEEEE"/>
<path d="M52.7361 45.6224V43.4626C52.7361 43.1279 52.6655 42.8847 52.5243 42.7305C52.3831 42.5788 52.1635 42.503 51.868 42.503C51.4706 42.503 51.1777 42.6023 50.9921 42.8037C50.8064 43.005 50.7149 43.3319 50.7149 43.7816V45.6198H50.4116V42.2886H50.6679L50.7254 42.7462H50.7437C50.9607 42.3984 51.3451 42.2258 51.8994 42.2258C52.6551 42.2258 53.0342 42.6311 53.0342 43.4417V45.6198H52.7361V45.6224Z" fill="#EEEEEE"/>
<path d="M55.1758 42.2255C55.4163 42.2255 55.6255 42.27 55.8007 42.3563C55.9759 42.4452 56.1327 42.5942 56.2713 42.806H56.2896C56.2766 42.5497 56.2713 42.2961 56.2713 42.0503V40.8528H56.572V45.6194H56.3759L56.3001 45.1096H56.2766C56.0229 45.4887 55.6595 45.6796 55.1862 45.6796C54.726 45.6796 54.3756 45.5358 54.1325 45.2508C53.8893 44.9658 53.769 44.5474 53.769 44.0009C53.769 43.4257 53.8893 42.9838 54.1299 42.6805C54.3678 42.3772 54.7182 42.2255 55.1758 42.2255ZM55.1758 42.5027C54.8123 42.5027 54.5378 42.6308 54.3574 42.8844C54.1743 43.1407 54.0828 43.5094 54.0828 43.9957C54.0828 44.9396 54.4489 45.4103 55.1836 45.4103C55.5601 45.4103 55.8347 45.3004 56.0099 45.0834C56.185 44.8638 56.2739 44.5056 56.2739 44.0009V43.9486C56.2739 43.4335 56.1877 43.0648 56.0151 42.8374C55.8425 42.6151 55.5627 42.5027 55.1758 42.5027Z" fill="#EEEEEE"/>
<path d="M60.3403 45.6821C59.8644 45.6821 59.4905 45.5331 59.2212 45.2324C58.9519 44.9317 58.8159 44.5133 58.8159 43.9773C58.8159 43.4256 58.9571 42.9968 59.2369 42.6882C59.5167 42.3797 59.901 42.228 60.3848 42.228C60.6724 42.228 60.9495 42.2777 61.211 42.3771L61.1273 42.6464C60.8397 42.5496 60.5887 42.5026 60.3769 42.5026C59.969 42.5026 59.6579 42.6281 59.4487 42.8817C59.2395 43.1327 59.1323 43.4962 59.1323 43.9721C59.1323 44.4218 59.2369 44.7722 59.4487 45.0284C59.6579 45.282 59.9533 45.4102 60.3325 45.4102C60.6358 45.4102 60.9155 45.3552 61.1744 45.248V45.5304C60.9626 45.6298 60.6854 45.6821 60.3403 45.6821Z" fill="#EEEEEE"/>
<path d="M64.5889 43.9516C64.5889 44.4954 64.4582 44.919 64.1941 45.2249C63.93 45.5309 63.5665 45.6825 63.1037 45.6825C62.8109 45.6825 62.5546 45.6119 62.3324 45.4707C62.1101 45.3295 61.9402 45.1282 61.8199 44.8641C61.7022 44.6 61.6421 44.2967 61.6421 43.9516C61.6421 43.4077 61.7728 42.9841 62.0369 42.6808C62.301 42.3775 62.6618 42.2258 63.122 42.2258C63.5796 42.2258 63.9378 42.3801 64.1993 42.686C64.4582 42.9946 64.5889 43.4155 64.5889 43.9516ZM61.9585 43.9516C61.9585 44.4091 62.0578 44.7674 62.2592 45.0236C62.4605 45.2798 62.7455 45.408 63.1116 45.408C63.4776 45.408 63.7626 45.2798 63.964 45.0236C64.1653 44.7674 64.2647 44.4091 64.2647 43.9516C64.2647 43.4914 64.1627 43.1358 63.9587 42.8821C63.7548 42.6285 63.4698 42.503 63.1011 42.503C62.7324 42.503 62.45 42.6285 62.2513 42.8821C62.0578 43.1331 61.9585 43.4887 61.9585 43.9516Z" fill="#EEEEEE"/>
<path d="M67.677 45.6224V43.4626C67.677 43.1279 67.6064 42.8847 67.4652 42.7305C67.324 42.5788 67.1044 42.503 66.8089 42.503C66.4115 42.503 66.1186 42.6023 65.933 42.8037C65.7474 43.005 65.6558 43.3319 65.6558 43.7816V45.6198H65.3525V42.2886H65.6088L65.6663 42.7462H65.6846C65.9016 42.3984 66.286 42.2258 66.8403 42.2258C67.596 42.2258 67.9751 42.6311 67.9751 43.4417V45.6198H67.677V45.6224Z" fill="#EEEEEE"/>
<path d="M70.9638 44.7543C70.9638 45.0524 70.8514 45.2825 70.6239 45.442C70.3964 45.6015 70.0748 45.6825 69.6591 45.6825C69.2146 45.6825 68.8616 45.6145 68.6001 45.4759V45.1491C68.9348 45.3164 69.2878 45.4001 69.6591 45.4001C69.9885 45.4001 70.2369 45.3452 70.4095 45.2354C70.5794 45.1256 70.6657 44.9818 70.6657 44.7987C70.6657 44.6314 70.5978 44.4902 70.4618 44.3751C70.3258 44.2601 70.1036 44.1477 69.7924 44.0378C69.4603 43.9176 69.225 43.813 69.0917 43.7267C68.9557 43.6404 68.8563 43.541 68.7857 43.4338C68.7178 43.324 68.6838 43.1907 68.6838 43.0338C68.6838 42.7854 68.7884 42.5867 68.9975 42.4429C69.2067 42.299 69.4996 42.2258 69.8761 42.2258C70.2369 42.2258 70.5768 42.2938 70.8984 42.4272L70.786 42.7017C70.4592 42.5657 70.1559 42.5004 69.8761 42.5004C69.6042 42.5004 69.3897 42.5448 69.2302 42.6363C69.0707 42.7252 68.9923 42.8508 68.9923 43.0103C68.9923 43.1828 69.0551 43.324 69.178 43.426C69.3009 43.5306 69.544 43.6456 69.9022 43.7764C70.2029 43.8836 70.42 43.9829 70.5585 44.0692C70.6945 44.1555 70.7991 44.2549 70.8671 44.3647C70.9298 44.4745 70.9638 44.6052 70.9638 44.7543Z" fill="#EEEEEE"/>
<path d="M71.9284 42.2905V44.4476C71.9284 44.7823 71.999 45.0255 72.1402 45.1771C72.2814 45.3288 72.5011 45.4046 72.7965 45.4046C73.194 45.4046 73.4842 45.3053 73.6725 45.1039C73.8581 44.9026 73.9522 44.5784 73.9522 44.126V42.2878H74.2529V45.619H73.9967L73.9418 45.1588H73.9235C73.7065 45.5066 73.3221 45.6792 72.7678 45.6792C72.0095 45.6792 71.6304 45.2739 71.6304 44.4633V42.2878H71.9284V42.2905Z" fill="#EEEEEE"/>
<path d="M75.5133 45.6221H75.21V40.8555H75.5133V45.6221Z" fill="#EEEEEE"/>
<path d="M77.3515 45.4129C77.5424 45.4129 77.7124 45.3972 77.8536 45.3632V45.609C77.7071 45.6586 77.5372 45.6822 77.3437 45.6822C77.0508 45.6822 76.8312 45.6037 76.6926 45.4468C76.5514 45.29 76.4834 45.0416 76.4834 44.7043V42.5523H75.9893V42.3745L76.4834 42.236L76.6377 41.4829H76.7946V42.2882H77.7725V42.5523H76.7946V44.6598C76.7946 44.9161 76.839 45.1043 76.9306 45.2272C77.0168 45.3501 77.158 45.4129 77.3515 45.4129Z" fill="#EEEEEE"/>
<path d="M78.3735 41.3656C78.3735 41.1695 78.4389 41.0728 78.567 41.0728C78.6298 41.0728 78.6795 41.0989 78.7161 41.1486C78.7527 41.2009 78.771 41.2715 78.771 41.3656C78.771 41.4571 78.7527 41.5303 78.7161 41.5826C78.6795 41.6349 78.6298 41.6611 78.567 41.6611C78.4363 41.6611 78.3735 41.5643 78.3735 41.3656ZM78.7187 45.6224H78.4154V42.2912H78.7187V45.6224Z" fill="#EEEEEE"/>
<path d="M82.0003 45.6224V43.4626C82.0003 43.1279 81.9297 42.8847 81.7885 42.7305C81.6473 42.5788 81.4277 42.503 81.1322 42.503C80.7348 42.503 80.4419 42.6023 80.2563 42.8037C80.0706 43.005 79.9791 43.3319 79.9791 43.7816V45.6198H79.6758V42.2886H79.932L79.9896 42.7462H80.0079C80.2249 42.3984 80.6092 42.2258 81.1636 42.2258C81.9192 42.2258 82.2984 42.6311 82.2984 43.4417V45.6198H82.0003V45.6224Z" fill="#EEEEEE"/>
<path d="M85.8206 42.2912V42.503L85.1303 42.5448C85.3134 42.7749 85.4049 43.0259 85.4049 43.2979C85.4049 43.6195 85.2977 43.8783 85.0859 44.0771C84.8715 44.2758 84.5865 44.3751 84.2256 44.3751C84.074 44.3751 83.9694 44.3699 83.9066 44.3568C83.7864 44.4196 83.6948 44.4954 83.6321 44.5817C83.5693 44.668 83.538 44.7595 83.538 44.8536C83.538 44.9608 83.5772 45.0367 83.6582 45.0864C83.7393 45.136 83.8753 45.1596 84.0635 45.1596H84.6466C85.0074 45.1596 85.2846 45.2328 85.4781 45.3792C85.669 45.5256 85.7657 45.74 85.7657 46.0277C85.7657 46.378 85.6245 46.65 85.3395 46.8408C85.0545 47.0317 84.6492 47.1285 84.121 47.1285C83.7027 47.1285 83.3785 47.0474 83.1484 46.8853C82.9183 46.7232 82.8032 46.4983 82.8032 46.2107C82.8032 45.9806 82.8738 45.7923 83.015 45.6407C83.1562 45.489 83.3497 45.387 83.5929 45.3321C83.4935 45.2903 83.4124 45.2275 83.3523 45.1491C83.2922 45.0707 83.2608 44.9792 83.2608 44.8772C83.2608 44.6549 83.402 44.4588 83.687 44.2889C83.4935 44.2104 83.3418 44.0849 83.2346 43.9123C83.1274 43.7424 83.0725 43.5463 83.0725 43.3266C83.0725 42.9946 83.1771 42.7279 83.3889 42.5265C83.6007 42.3252 83.8857 42.2258 84.2466 42.2258C84.4662 42.2258 84.6335 42.2467 84.7564 42.2912H85.8206ZM83.1248 46.1845C83.1248 46.6421 83.4648 46.8696 84.1446 46.8696C85.0179 46.8696 85.4572 46.5898 85.4572 46.0329C85.4572 45.8315 85.3892 45.6877 85.2506 45.5988C85.1146 45.5099 84.8924 45.4629 84.5865 45.4629H84.04C83.4308 45.4655 83.1248 45.706 83.1248 46.1845ZM83.3785 43.3292C83.3785 43.5855 83.4569 43.7868 83.6138 43.928C83.7707 44.0692 83.9799 44.1398 84.2413 44.1398C84.5185 44.1398 84.7329 44.0692 84.8793 43.928C85.0284 43.7868 85.1016 43.5829 85.1016 43.3162C85.1016 43.0312 85.0257 42.8194 84.8741 42.6782C84.7224 42.537 84.508 42.4664 84.2361 42.4664C83.9694 42.4664 83.7628 42.5422 83.6086 42.6939C83.4543 42.8455 83.3785 43.0573 83.3785 43.3292Z" fill="#EEEEEE"/>
<path d="M87.013 16.7262C81.7757 16.7968 77.5137 21.1033 77.5137 26.3589V35.0686C77.5137 35.8269 78.1281 36.4439 78.889 36.4439C79.6499 36.4439 80.2644 35.8295 80.2644 35.0686V26.4635C80.2644 22.8656 82.9785 19.7724 86.5659 19.4848C90.59 19.1605 93.9891 22.3662 93.9891 26.3249V35.0477C93.9891 35.819 94.614 36.4439 95.3854 36.4439C96.1567 36.4439 96.7817 35.819 96.7817 35.0477V26.5315C96.779 21.1608 92.3837 16.653 87.013 16.7262Z" fill="#EEEEEE"/>
<path d="M76.6194 25.6953C76.2193 20.5574 71.926 16.5098 66.686 16.5098C61.182 16.5098 56.7188 20.9731 56.7188 26.4771C56.7188 31.9812 61.182 36.4445 66.686 36.4445C70.4695 36.4445 73.759 34.3318 75.4455 31.2255C75.5945 30.9928 75.6834 30.7182 75.6834 30.4228C75.6834 29.6017 75.0167 28.935 74.1957 28.935C73.6727 28.935 73.2151 29.2043 72.9484 29.6122C72.8909 29.6933 72.87 29.7403 72.8543 29.7691C71.6777 31.9707 69.3557 33.4689 66.686 33.4689C62.8267 33.4689 59.6968 30.3391 59.6968 26.4798C59.6968 22.6204 62.8267 19.4906 66.686 19.4906C69.7557 19.4906 72.3626 21.4699 73.3013 24.2232L64.8741 28.3885C64.4427 28.6212 64.1523 29.0762 64.1523 29.5991C64.1523 30.3574 64.7669 30.9745 65.5278 30.9745C65.7239 30.9745 65.9121 30.9327 66.0794 30.8568L66.1552 30.8202C66.1657 30.815 66.1735 30.8124 66.184 30.8071L73.6387 27.1413C73.6387 27.1491 73.6387 27.157 73.6361 27.1622L76.6194 25.6953Z" fill="#EEEEEE"/>
<path d="M58.7087 17.6234C58.6145 17.0534 58.1439 16.5958 57.5712 16.52C56.9751 16.4415 56.4443 16.7579 56.1985 17.2416L48.1294 32.2947L40.0604 17.2416C39.8146 16.7579 39.2838 16.4415 38.6876 16.52C38.115 16.5958 37.6417 17.0534 37.5502 17.6234C37.4953 17.9555 37.5659 18.2692 37.7202 18.5281L46.8691 35.5579H46.8744C47.06 36.073 47.5516 36.4416 48.132 36.4416C48.7125 36.4416 49.2041 36.073 49.3897 35.5579H49.395L58.5439 18.5281C58.693 18.2692 58.7636 17.9581 58.7087 17.6234Z" fill="#EEEEEE"/>
<path d="M39.516 25.6953C39.1159 20.5574 34.8225 16.5098 29.5826 16.5098C24.0786 16.5098 19.6152 20.9731 19.6152 26.4771C19.6152 31.9812 24.0786 36.4445 29.5826 36.4445C33.3661 36.4445 36.6555 34.3318 38.342 31.2255C38.491 30.9928 38.5799 30.7182 38.5799 30.4228C38.5799 29.6017 37.9131 28.935 37.0921 28.935C36.5692 28.935 36.1116 29.2043 35.8449 29.6122C35.7874 29.6933 35.7664 29.7403 35.7508 29.7691C34.5741 31.9707 32.2522 33.4689 29.5826 33.4689C25.7233 33.4689 22.5934 30.3391 22.5934 26.4798C22.5934 22.6204 25.7233 19.4906 29.5826 19.4906C32.6523 19.4906 35.2592 21.4699 36.1979 24.2232L27.7706 28.3885C27.3392 28.6212 27.0489 29.0762 27.0489 29.5991C27.0489 30.3574 27.6634 30.9745 28.4243 30.9745C28.6204 30.9745 28.8086 30.9327 28.976 30.8568L29.0518 30.8202C29.0623 30.815 29.0701 30.8124 29.0806 30.8071L36.5352 27.1413C36.5352 27.1491 36.5352 27.157 36.5326 27.1622L39.516 25.6953Z" fill="#EEEEEE"/>
<path d="M20.4183 19.5907C20.4445 19.5855 20.4706 19.5802 20.4968 19.5724C20.5072 19.5698 20.5203 19.5672 20.5281 19.5646C20.5307 19.5646 20.5308 19.5619 20.5334 19.5619C21.1661 19.3894 21.6315 18.8141 21.6315 18.1265C21.6315 17.3054 20.9648 16.6387 20.1438 16.6387C20.0339 16.6387 19.9267 16.6517 19.8222 16.6727C19.8039 16.6753 19.7882 16.6831 19.7699 16.6884C15.1784 17.5643 11.7034 21.5884 11.6825 26.4309C11.6825 26.4465 11.6825 26.5093 11.6825 26.525C11.659 29.9372 9.19326 32.769 5.94314 33.3547C5.94052 33.3547 5.93791 33.3573 5.93268 33.3573C5.91438 33.3599 5.89346 33.3625 5.87515 33.3677C5.2084 33.5142 4.70898 34.1103 4.70898 34.8215C4.70898 35.6426 5.37574 36.3093 6.19677 36.3093C6.30397 36.3093 6.40595 36.2989 6.50792 36.2753C6.51315 36.2753 6.51577 36.2753 6.51838 36.2753C11.1412 35.4177 14.645 31.3727 14.6581 26.5041C14.6581 26.4962 14.6581 26.4596 14.6581 26.4492C14.6711 23.0709 17.0819 20.2575 20.2771 19.6221C20.3163 19.6142 20.3686 19.6012 20.4183 19.5907Z" fill="#EEEEEE"/>
<path d="M104.977 5.65306L108.402 36.4703L119.172 0L104.977 5.65306Z" fill="url(#paint0_linear)"/>
<path d="M99.8437 8.00109L119.172 0H86.3726L99.8437 8.00109Z" fill="url(#paint1_linear)"/>
<defs>
<linearGradient id="paint0_linear" x1="109.617" y1="5.00113" x2="116.31" y2="26.2436" gradientUnits="userSpaceOnUse">
<stop offset="0.00187577" stop-color="#E94E1B"/>
<stop offset="1" stop-color="#F39200"/>
</linearGradient>
<linearGradient id="paint1_linear" x1="89.909" y1="3.1676" x2="111.824" y2="4.10017" gradientUnits="userSpaceOnUse">
<stop offset="0.00187577" stop-color="#E94E1B"/>
<stop offset="1" stop-color="#F39200"/>
</linearGradient>
</defs>
</svg>
