<svg width="24" height="24" viewBox="0 0 24 24" fill="none" xmlns="http://www.w3.org/2000/svg">
<path d="M6 6V5.5C5.72386 5.5 5.5 5.72386 5.5 6H6ZM10 6H10.5C10.5 5.72386 10.2761 5.5 10 5.5V6ZM10 10V10.5C10.2761 10.5 10.5 10.2761 10.5 10H10ZM6 10H5.5C5.5 10.2761 5.72386 10.5 6 10.5V10ZM6 14V13.5C5.72386 13.5 5.5 13.7239 5.5 14H6ZM10 14H10.5C10.5 13.7239 10.2761 13.5 10 13.5V14ZM10 18V18.5C10.2761 18.5 10.5 18.2761 10.5 18H10ZM6 18H5.5C5.5 18.2761 5.72386 18.5 6 18.5V18ZM14 13.5C13.7239 13.5 13.5 13.7239 13.5 14C13.5 14.2761 13.7239 14.5 14 14.5V13.5ZM18 14.5C18.2761 14.5 18.5 14.2761 18.5 14C18.5 13.7239 18.2761 13.5 18 13.5V14.5ZM14 17.5C13.7239 17.5 13.5 17.7239 13.5 18C13.5 18.2761 13.7239 18.5 14 18.5V17.5ZM18 18.5C18.2761 18.5 18.5 18.2761 18.5 18C18.5 17.7239 18.2761 17.5 18 17.5V18.5ZM14 5.5C13.7239 5.5 13.5 5.72386 13.5 6C13.5 6.27614 13.7239 6.5 14 6.5V5.5ZM18 6.5C18.2761 6.5 18.5 6.27614 18.5 6C18.5 5.72386 18.2761 5.5 18 5.5V6.5ZM14 9.5C13.7239 9.5 13.5 9.72386 13.5 10C13.5 10.2761 13.7239 10.5 14 10.5V9.5ZM18 10.5C18.2761 10.5 18.5 10.2761 18.5 10C18.5 9.72386 18.2761 9.5 18 9.5V10.5ZM3.5 2.5H20.5V1.5H3.5V2.5ZM20.5 2.5C21.0523 2.5 21.5 2.94772 21.5 3.5H22.5C22.5 2.39543 21.6046 1.5 20.5 1.5V2.5ZM21.5 3.5V20.5H22.5V3.5H21.5ZM21.5 20.5C21.5 21.0523 21.0523 21.5 20.5 21.5V22.5C21.6046 22.5 22.5 21.6046 22.5 20.5H21.5ZM20.5 21.5H3.5V22.5H20.5V21.5ZM3.5 21.5C2.94772 21.5 2.5 21.0523 2.5 20.5H1.5C1.5 21.6046 2.39543 22.5 3.5 22.5V21.5ZM2.5 20.5V3.5H1.5V20.5H2.5ZM2.5 3.5C2.5 2.94772 2.94772 2.5 3.5 2.5V1.5C2.39543 1.5 1.5 2.39543 1.5 3.5H2.5ZM6 6.5H10V5.5H6V6.5ZM9.5 6V10H10.5V6H9.5ZM10 9.5H6V10.5H10V9.5ZM6.5 10V6H5.5V10H6.5ZM6 14.5H10V13.5H6V14.5ZM9.5 14V18H10.5V14H9.5ZM10 17.5H6V18.5H10V17.5ZM6.5 18V14H5.5V18H6.5ZM14 14.5H18V13.5H14V14.5ZM14 18.5H18V17.5H14V18.5ZM14 6.5H18V5.5H14V6.5ZM14 10.5H18V9.5H14V10.5Z" fill="#4F4F4F"/>
</svg>
